<svg width="34" height="35" viewBox="0 0 34 35" fill="none" xmlns="http://www.w3.org/2000/svg">
<path fill-rule="evenodd" clip-rule="evenodd" d="M17.0516 34.3915C26.3803 34.3915 33.9427 26.829 33.9427 17.5003C33.9427 8.17156 26.3803 0.609131 17.0516 0.609131C7.72283 0.609131 0.1604 8.17156 0.1604 17.5003C0.1604 26.829 7.72283 34.3915 17.0516 34.3915ZM12.5366 31.9299C13.9624 32.3755 15.4789 32.6157 17.0516 32.6157C18.6138 32.6157 20.1207 32.3787 21.5382 31.9387V28.2437C21.5386 27.6476 21.4203 27.0575 21.1901 26.5076C20.9599 25.9578 20.6224 25.4594 20.1974 25.0414C25.1592 24.1687 27.2354 21.1459 27.2354 17.5495C27.2354 15.8041 26.6548 14.1889 25.5146 12.8939C26.1588 10.8909 25.4915 9.17906 25.3395 8.78905C25.3321 8.76998 25.3258 8.75408 25.3211 8.74145C23.4208 8.56902 21.4502 9.98365 21.0526 10.2863C19.8807 9.96958 18.5506 9.79715 17.0585 9.79715C15.5735 9.79715 14.2468 9.96254 13.0856 10.2757C12.9202 10.1455 10.7947 8.49864 8.75016 8.68163C8.7463 8.69153 8.74153 8.70351 8.73597 8.7175C8.58923 9.08627 7.8861 10.8533 8.57773 12.9044C7.45165 14.1959 6.87806 15.797 6.87806 17.5389C6.87806 21.1283 8.94019 24.1476 13.8879 25.0344C13.2967 25.608 12.8674 26.347 12.6668 27.1739C11.7483 27.4027 9.93606 27.6349 9.00705 26.259C7.72261 24.3623 6.61413 23.662 5.52676 24.2215C5.28538 24.5 5.59755 24.71 6.04144 25.0085C6.4388 25.2757 6.94171 25.6139 7.24755 26.1358C7.29442 26.2131 7.33858 26.3467 7.39479 26.5169C7.7226 27.5091 8.46028 29.7418 12.5366 29.2642V31.9299Z" fill="#928A97"/>
</svg>
