<svg width="36" height="35" viewBox="0 0 36 35" fill="none" xmlns="http://www.w3.org/2000/svg">
<path d="M18.0862 0.203857C8.53348 0.203857 0.789673 7.94767 0.789673 17.5004C0.789673 27.0532 8.53348 34.797 18.0862 34.797C27.639 34.797 35.3828 27.0532 35.3828 17.5004C35.3828 7.94767 27.639 0.203857 18.0862 0.203857ZM13.8522 24.6695H10.3496V13.3979H13.8522V24.6695ZM12.0793 12.0142C10.973 12.0142 10.2577 11.2304 10.2577 10.2611C10.2577 9.27194 10.9946 8.51161 12.1243 8.51161C13.254 8.51161 13.9459 9.27194 13.9675 10.2611C13.9675 11.2304 13.254 12.0142 12.0793 12.0142ZM26.6444 24.6695H23.1419V18.4229C23.1419 16.9689 22.6338 15.9816 21.3672 15.9816C20.3996 15.9816 19.8249 16.65 19.5708 17.2932C19.4772 17.522 19.4537 17.8463 19.4537 18.1688V24.6677H15.9494V16.9923C15.9494 15.5852 15.9043 14.4087 15.8575 13.3961H18.9006L19.061 14.9618H19.1312C19.5925 14.2267 20.7222 13.142 22.6122 13.142C24.9166 13.142 26.6444 14.6861 26.6444 18.0049V24.6695Z" fill="#928A97"/>
</svg>
